<svg width="14" height="11" viewBox="0 0 14 11" fill="none" xmlns="http://www.w3.org/2000/svg">
<path d="M0.862095 6.53878L0.841803 6.53426L9.54081 6.53426L6.80616 9.32628C6.67225 9.46259 6.59879 9.64725 6.59879 9.84106C6.59879 10.0349 6.67225 10.2182 6.80616 10.3549L7.23167 10.7886C7.36548 10.9249 7.54378 11.0002 7.73391 11.0002C7.92416 11.0002 8.10256 10.9254 8.23637 10.7891L12.9241 6.014C13.0584 5.87715 13.1319 5.69486 13.1313 5.50094C13.1319 5.30595 13.0584 5.12356 12.9241 4.98692L8.23637 0.211387C8.10257 0.0751831 7.92426 0.000244158 7.73392 0.000244141C7.54378 0.000244124 7.36548 0.0752907 7.23167 0.211387L6.80616 0.645086C6.67225 0.781182 6.59879 0.962931 6.59879 1.15674C6.59879 1.35044 6.67225 1.52261 6.80616 1.65881L9.57167 4.46644L0.852372 4.46644C0.460575 4.46644 0.131348 4.81045 0.131348 5.20937L0.131348 5.82277C0.131348 6.22169 0.470299 6.53878 0.862095 6.53878Z" fill="white"/>
</svg>
