<svg width="46" height="65" viewBox="0 0 46 65" fill="none" xmlns="http://www.w3.org/2000/svg">
<g filter="url(#filter0_d_334_15)">
<path fill-rule="evenodd" clip-rule="evenodd" d="M25.6814 24.0002H19.3284C18.9775 24.0007 18.6411 24.1452 18.393 24.4022C18.1448 24.6593 18.0053 25.0077 18.0049 25.3712V39.6293C18.0053 39.9928 18.1448 40.3412 18.393 40.5982C18.6411 40.8553 18.9775 40.9998 19.3284 41.0002H25.6814C26.0323 40.9998 26.3687 40.8553 26.6168 40.5982C26.8649 40.3412 27.0045 39.9928 27.0049 39.6293V25.3712C27.0045 25.0077 26.8649 24.6593 26.6168 24.4022C26.3687 24.1452 26.0323 24.0007 25.6814 24.0002ZM24.2997 24.5486L24.1408 25.3712H20.869L20.7101 24.5486H24.2997ZM26.4755 39.6293C26.4752 39.8474 26.3915 40.0564 26.2426 40.2107C26.0937 40.3649 25.8919 40.4516 25.6814 40.4519H19.3284C19.1179 40.4516 18.916 40.3649 18.7671 40.2107C18.6183 40.0564 18.5345 39.8474 18.5343 39.6293V25.3712C18.5345 25.1531 18.6183 24.944 18.7671 24.7898C18.916 24.6356 19.1179 24.5489 19.3284 24.5486H20.1702L20.3924 25.6992C20.4044 25.7613 20.4368 25.8173 20.4841 25.8575C20.5314 25.8976 20.5907 25.9196 20.6519 25.9196H24.3578C24.419 25.9196 24.4783 25.8976 24.5257 25.8575C24.573 25.8173 24.6054 25.7613 24.6174 25.6992L24.8396 24.5486H25.6814C25.8919 24.5489 26.0937 24.6356 26.2426 24.7898C26.3915 24.944 26.4752 25.1531 26.4755 25.3712V39.6293Z" fill="#5653E5"/>
</g>
<defs>
<filter id="filter0_d_334_15" x="14.0049" y="24.0002" width="17" height="25" filterUnits="userSpaceOnUse" color-interpolation-filters="sRGB">
<feFlood flood-opacity="0" result="BackgroundImageFix"/>
<feColorMatrix in="SourceAlpha" type="matrix" values="0 0 0 0 0 0 0 0 0 0 0 0 0 0 0 0 0 0 127 0" result="hardAlpha"/>
<feOffset dy="4"/>
<feGaussianBlur stdDeviation="2"/>
<feComposite in2="hardAlpha" operator="out"/>
<feColorMatrix type="matrix" values="0 0 0 0 0 0 0 0 0 0 0 0 0 0 0 0 0 0 0.25 0"/>
<feBlend mode="normal" in2="BackgroundImageFix" result="effect1_dropShadow_334_15"/>
<feBlend mode="normal" in="SourceGraphic" in2="effect1_dropShadow_334_15" result="shape"/>
</filter>
</defs>
</svg>
