<svg width="18" height="25" viewBox="0 0 18 25" fill="none" xmlns="http://www.w3.org/2000/svg">
<g filter="url(#filter0_d_323_17)">
<path fill-rule="evenodd" clip-rule="evenodd" d="M11.6814 0.000244141H5.32841C4.97751 0.000652365 4.6411 0.145224 4.39297 0.402242C4.14485 0.65926 4.00528 1.00773 4.00488 1.37121V15.6293C4.00528 15.9928 4.14485 16.3412 4.39297 16.5982C4.6411 16.8553 4.97751 16.9998 5.32841 17.0002H11.6814C12.0323 16.9998 12.3687 16.8553 12.6168 16.5982C12.8649 16.3412 13.0045 15.9928 13.0049 15.6293V1.37121C13.0045 1.00773 12.8649 0.65926 12.6168 0.402242C12.3687 0.145224 12.0323 0.000652365 11.6814 0.000244141ZM10.2997 0.548631L10.1408 1.37121H6.86897L6.71014 0.548631H10.2997ZM12.4755 15.6293C12.4752 15.8474 12.3915 16.0564 12.2426 16.2107C12.0937 16.3649 11.8919 16.4516 11.6814 16.4519H5.32841C5.11787 16.4516 4.91602 16.3649 4.76715 16.2107C4.61827 16.0564 4.53453 15.8474 4.53429 15.6293V1.37121C4.53453 1.15313 4.61827 0.944041 4.76715 0.78983C4.91602 0.635619 5.11787 0.548876 5.32841 0.548631H6.17021L6.39236 1.69918C6.40437 1.76134 6.43679 1.81727 6.48411 1.85746C6.53144 1.89764 6.59075 1.9196 6.65194 1.9196H10.3578C10.419 1.9196 10.4783 1.89764 10.5257 1.85746C10.573 1.81727 10.6054 1.76134 10.6174 1.69918L10.8396 0.548631H11.6814C11.8919 0.548876 12.0937 0.635619 12.2426 0.78983C12.3915 0.944041 12.4752 1.15313 12.4755 1.37121V15.6293Z" fill="#5653E5"/>
</g>
<defs>
<filter id="filter0_d_323_17" x="0.00488281" y="0.000244141" width="17" height="25" filterUnits="userSpaceOnUse" color-interpolation-filters="sRGB">
<feFlood flood-opacity="0" result="BackgroundImageFix"/>
<feColorMatrix in="SourceAlpha" type="matrix" values="0 0 0 0 0 0 0 0 0 0 0 0 0 0 0 0 0 0 127 0" result="hardAlpha"/>
<feOffset dy="4"/>
<feGaussianBlur stdDeviation="2"/>
<feComposite in2="hardAlpha" operator="out"/>
<feColorMatrix type="matrix" values="0 0 0 0 0 0 0 0 0 0 0 0 0 0 0 0 0 0 0.25 0"/>
<feBlend mode="normal" in2="BackgroundImageFix" result="effect1_dropShadow_323_17"/>
<feBlend mode="normal" in="SourceGraphic" in2="effect1_dropShadow_323_17" result="shape"/>
</filter>
</defs>
</svg>
