<svg width="110" height="67" viewBox="0 0 110 67" fill="none" xmlns="http://www.w3.org/2000/svg">
<path d="M1.22687 8.46594C2.50185 10.8899 4.52654 12.9294 6.08744 15.1955C10.5973 21.7421 5.90459 29.41 7.96418 36.4703C9.7578 42.6224 17.2166 44.2708 22.6689 44.5277C31.8565 44.949 41.034 44.3178 49.8924 41.6404C56.043 39.7822 62.1935 37.3482 68.6765 37.2022C75.2991 37.0511 81.5294 39.9098 87.9292 41.2611C94.9558 42.745 103.359 41.1335 105.051 32.7001C106.1 27.4763 103.276 22.6654 103.011 17.5204C102.661 10.7103 108.977 6.97365 109.795 0.608336C110.31 -3.40524 108.386 -6.99244 105.874 -9.89477C103.224 -12.9582 99.6584 -15.6659 95.5675 -15.9176C91.2937 -16.1812 87.4788 -13.769 83.4826 -12.6175C72.2554 -9.38111 65.8838 -20.1713 55.5559 -21.682C50.9014 -22.3535 45.1698 -22.0379 40.9393 -19.708C37.0046 -17.5409 35.0963 -12.7249 30.6829 -11.3149C26.0118 -9.81755 21.738 -12.8088 17.2997 -13.7657C12.7034 -14.7544 8.35981 -12.9985 5.48568 -9.14947C2.698 -5.4179 -0.319075 -0.50123 0.0266836 4.42719C0.138112 5.84424 0.547256 7.22106 1.22687 8.46594V8.46594Z" fill="#F6F9FD"/>
<path d="M25.5781 5.90234V41.4521C25.5781 44.0674 27.8538 46.1875 30.6598 46.1875H89.7646C92.5706 46.1875 94.8463 44.0674 94.8463 41.4521V5.90234H25.5781Z" fill="#7494E5"/>
<path d="M77.5647 -4.68271L62.5408 -13.8631C61.8416 -14.2999 61.0357 -14.5313 60.2136 -14.5312C59.3914 -14.5313 58.5855 -14.2999 57.8863 -13.8631L42.8624 -4.68607L25.5063 5.91439L42.8591 16.4897L60.2119 27.065L77.5647 16.4796L94.9174 5.91439L77.5647 -4.68271Z" fill="#5579C4"/>
<g style="mix-blend-mode:soft-light">
<g style="mix-blend-mode:soft-light">
<path d="M26.9295 66.642C26.9059 66.6423 26.8827 66.6356 26.8628 66.6228C26.8428 66.61 26.8271 66.5916 26.8174 66.5698C26.8077 66.5481 26.8044 66.5239 26.8081 66.5004C26.8118 66.4768 26.8222 66.4549 26.838 66.4372L48.4812 41.8488C48.4921 41.8368 48.5053 41.8271 48.5199 41.8202C48.5346 41.8133 48.5504 41.8094 48.5665 41.8087C48.5827 41.808 48.5988 41.8105 48.6139 41.8161C48.6291 41.8217 48.643 41.8302 48.6549 41.8413C48.6668 41.8523 48.6765 41.8656 48.6833 41.8803C48.6901 41.8951 48.694 41.9111 48.6947 41.9274C48.6954 41.9437 48.6929 41.96 48.6873 41.9753C48.6818 41.9906 48.6733 42.0047 48.6624 42.0167L27.0276 66.6067C27.0148 66.6196 26.9994 66.6294 26.9824 66.6355C26.9655 66.6416 26.9474 66.6438 26.9295 66.642Z" fill="white"/>
</g>
<g style="mix-blend-mode:soft-light">
<path d="M93.488 44.642C93.4706 44.642 93.4535 44.6382 93.4377 44.631C93.422 44.6238 93.4079 44.6132 93.3965 44.6L71.755 20.0167C71.7441 20.0047 71.7356 19.9906 71.7301 19.9753C71.7246 19.96 71.7221 19.9437 71.7228 19.9274C71.7235 19.9111 71.7273 19.8951 71.7341 19.8803C71.741 19.8656 71.7506 19.8523 71.7625 19.8413C71.7744 19.8302 71.7883 19.8217 71.8035 19.8161C71.8187 19.8105 71.8348 19.808 71.8509 19.8087C71.867 19.8094 71.8829 19.8133 71.8975 19.8202C71.9121 19.8271 71.9253 19.8368 71.9362 19.8488L93.5794 44.4372C93.5952 44.4549 93.6056 44.4768 93.6093 44.5004C93.613 44.5239 93.6098 44.5481 93.6001 44.5698C93.5904 44.5915 93.5746 44.61 93.5547 44.6228C93.5347 44.6356 93.5116 44.6423 93.488 44.642Z" fill="white"/>
</g>
</g>
<path d="M81.7589 -11.2969H33.2745C32.8573 -11.2864 32.4606 -11.112 32.1688 -10.8107C31.877 -10.5095 31.7131 -10.1051 31.7119 -9.68372V30.0491H88.7139V-4.16276L81.7589 -11.2969Z" fill="#5653E5"/>
<path d="M72.7873 7.39295C72.804 8.79178 72.5639 10.1816 72.0791 11.4921C71.607 12.7321 70.9421 13.7045 70.0844 14.4096C69.2375 15.1092 68.1729 15.4838 67.0789 15.4671C66.3679 15.4806 65.6679 15.289 65.0609 14.9148C64.4998 14.5746 64.0581 14.0657 63.7975 13.4595H63.5515C63.046 14.1015 62.4008 14.6172 61.666 14.9665C60.9311 15.3159 60.1264 15.4895 59.3143 15.4738C57.4958 15.4738 56.0628 14.9215 55.0156 13.817C53.9683 12.7125 53.4447 11.2017 53.4447 9.28475C53.4447 7.09583 54.1329 5.33217 55.5093 3.99375C56.8857 2.65534 58.6832 1.98389 60.9018 1.97941C61.8805 1.98757 62.8571 2.07344 63.8225 2.23624C64.7135 2.36639 65.592 2.5719 66.4489 2.85061L66.0948 10.4598C66.0948 11.9012 66.4827 12.6218 67.2585 12.6218C67.9156 12.6218 68.4393 12.1367 68.8293 11.1665C69.2194 10.1962 69.4145 8.92832 69.4145 7.36273C69.4145 5.69307 69.0704 4.21757 68.3822 2.93622C67.726 1.68767 66.7146 0.66625 65.4781 0.00367996C64.1583 -0.686356 62.6887 -1.03256 61.2027 -1.00349C59.1281 -1.00349 57.3256 -0.573204 55.7952 0.287367C54.2736 1.13895 53.0453 2.43897 52.2745 4.0139C51.4577 5.63768 51.0493 7.51269 51.0493 9.63894C51.0493 12.5015 51.8068 14.6983 53.3217 16.2292C54.8366 17.7601 57.0325 18.525 59.9094 18.5239C61.1149 18.5105 62.3168 18.3864 63.5 18.1529C64.8112 17.9072 66.0995 17.5506 67.3516 17.087V20.0749C65.1529 21.0183 62.7148 21.49 60.0374 21.49C56.1343 21.49 53.0912 20.4526 50.908 18.3778C48.7249 16.303 47.6305 13.4192 47.625 9.72623C47.625 7.16354 48.1824 4.83753 49.2973 2.74822C50.387 0.684062 52.039 -1.02201 54.0581 -2.16845C56.1172 -3.35579 58.4876 -3.94946 61.1694 -3.94946C63.4291 -3.94946 65.4477 -3.48281 67.2252 -2.5495C68.9559 -1.66094 70.3875 -0.274931 71.3394 1.43386C72.3047 3.15724 72.7873 5.14361 72.7873 7.39295ZM57.017 9.33847C57.017 11.5274 57.9003 12.6218 59.6667 12.6218C60.591 12.6218 61.2947 12.2923 61.7779 11.6331C62.261 10.974 62.5536 9.90304 62.6555 8.42026L62.855 4.98246C62.2719 4.86358 61.6779 4.80731 61.083 4.8146C59.7986 4.8146 58.8012 5.21914 58.0909 6.02824C57.3805 6.83733 57.0226 7.94074 57.017 9.33847Z" fill="white"/>
<path d="M90.9114 25.6212V31.5132C90.9114 31.9932 90.6222 32.3827 90.2648 32.3827H69.0056C68.708 32.3827 68.4504 32.6546 68.3772 33.0407L67.9882 35.0936C67.9384 35.3656 67.6558 35.3891 67.5826 35.1255L67.084 33.3915C66.9875 33.0558 66.7515 32.8309 66.4789 32.8309H65.5646C65.2072 32.8309 64.918 32.4414 64.918 31.9614V25.9049C64.918 25.4282 65.2039 25.0387 65.5596 25.0354L90.2448 24.75C90.6189 24.7467 90.9114 25.1378 90.9114 25.6212Z" fill="#BDD0FB"/>
<path d="M68.2224 31.3075C69.6629 31.3075 70.8306 30.0975 70.8306 28.6049C70.8306 27.1123 69.6629 25.9023 68.2224 25.9023C66.782 25.9023 65.6143 27.1123 65.6143 28.6049C65.6143 30.0975 66.782 31.3075 68.2224 31.3075Z" fill="#7D97F4"/>
<path d="M69.1669 27.509C69.1669 27.9942 68.7779 28.5162 68.2959 28.5162C67.8138 28.5162 67.4248 27.9925 67.4248 27.509C67.4414 27.2875 67.5403 27.0804 67.7017 26.9293C67.8631 26.7783 68.075 26.6943 68.295 26.6943C68.5151 26.6943 68.727 26.7783 68.8884 26.9293C69.0497 27.0804 69.1486 27.2875 69.1653 27.509H69.1669Z" fill="url(#paint0_linear_2_1026)"/>
<path d="M67.2152 30.387H69.3396C69.4487 30.3872 69.555 30.3524 69.6432 30.2875C69.7314 30.2226 69.7968 30.131 69.83 30.0261L69.9447 29.6652C69.9855 29.5378 69.9759 29.3994 69.918 29.2789C69.8601 29.1584 69.7582 29.0653 69.6338 29.0189C68.7694 28.7 67.8751 28.7403 66.9592 29.0491C66.8347 29.0908 66.7308 29.1792 66.6689 29.296C66.607 29.4129 66.5919 29.5492 66.6267 29.6769L66.7148 30.0126C66.7461 30.1218 66.812 30.2175 66.9024 30.2851C66.9928 30.3527 67.1027 30.3885 67.2152 30.387Z" fill="url(#paint1_linear_2_1026)"/>
<path d="M88.882 29.3089C88.8773 29.4459 88.8193 29.5755 88.7207 29.6697C88.6221 29.7639 88.4908 29.8152 88.3551 29.8125H72.8375C72.7018 29.8152 72.5704 29.7639 72.4719 29.6697C72.3733 29.5755 72.3153 29.4459 72.3105 29.3089V29.3089C72.3153 29.1719 72.3733 29.0423 72.4719 28.9481C72.5704 28.8538 72.7018 28.8026 72.8375 28.8053H88.3551C88.4908 28.8026 88.6221 28.8538 88.7207 28.9481C88.8193 29.0423 88.8773 29.1719 88.882 29.3089V29.3089Z" fill="url(#paint2_linear_2_1026)"/>
<path d="M81.5342 30.9494C81.5342 31.0727 81.4857 31.1909 81.3994 31.2781C81.313 31.3653 81.1959 31.4143 81.0738 31.4143H72.9385C72.8164 31.4143 72.6992 31.3653 72.6129 31.2781C72.5265 31.1909 72.478 31.0727 72.478 30.9494V30.9494C72.478 30.826 72.5265 30.7078 72.6129 30.6206C72.6992 30.5334 72.8164 30.4844 72.9385 30.4844H81.0738C81.1959 30.4844 81.313 30.5334 81.3994 30.6206C81.4857 30.7078 81.5342 30.826 81.5342 30.9494V30.9494Z" fill="url(#paint3_linear_2_1026)"/>
<path d="M88.8901 30.9494C88.8901 31.0718 88.8423 31.1893 88.757 31.2764C88.6717 31.3634 88.5559 31.413 88.4346 31.4143H82.5601C82.4379 31.4143 82.3208 31.3653 82.2345 31.2781C82.1481 31.1909 82.0996 31.0727 82.0996 30.9494V30.9494C82.0996 30.826 82.1481 30.7078 82.2345 30.6206C82.3208 30.5334 82.4379 30.4844 82.5601 30.4844H88.4346C88.5567 30.4844 88.6739 30.5334 88.7602 30.6206C88.8466 30.7078 88.8951 30.826 88.8951 30.9494H88.8901Z" fill="url(#paint4_linear_2_1026)"/>
<path d="M80.7477 26.126H72.9116C72.5554 26.126 72.2666 26.4176 72.2666 26.7773V26.8327C72.2666 27.1924 72.5554 27.484 72.9116 27.484H80.7477C81.1039 27.484 81.3927 27.1924 81.3927 26.8327V26.7773C81.3927 26.4176 81.1039 26.126 80.7477 26.126Z" fill="#7D97F4"/>
<path d="M53.9584 -10.7531C53.9484 -0.808925 53.8736 33.4869 53.2851 45.6284C53.222 46.9142 52.326 47.9281 51.2355 47.9465C45.843 48.0338 26.0782 48.1144 17.2747 47.4866C15.4461 47.354 14.0199 45.5646 14.0298 43.3941C14.0747 32.9581 14.3141 3.61087 15.5691 -9.81807C15.7187 -11.4262 16.8175 -12.6851 18.1823 -12.8144C24.0652 -13.3767 43.948 -14.629 51.543 -13.8736C52.9128 -13.7393 53.96 -12.3864 53.9584 -10.7531Z" fill="#A2A7CE"/>
<path d="M51.4868 -7.76549C51.6015 0.263333 51.9307 26.9701 51.4237 36.832C51.3489 38.2739 50.3615 39.4187 49.1397 39.4758C44.1112 39.7108 26.9612 40.0936 19.6105 39.2324C18.2807 39.078 17.2733 37.7871 17.2367 36.2109C17.0423 28.0193 16.5153 3.14216 17.009 -6.60725C17.0871 -8.16332 18.1361 -9.41054 19.4526 -9.52133C24.8983 -9.97623 43.1338 -10.9398 49.384 -10.3976C50.5576 -10.2901 51.4669 -9.15539 51.4868 -7.76549Z" fill="#B0D7FB"/>
<path d="M34.2519 49.3821C41.2301 49.3821 46.887 43.6696 46.887 36.6229C46.887 29.5762 41.2301 23.8638 34.2519 23.8638C27.2737 23.8638 21.6167 29.5762 21.6167 36.6229C21.6167 43.6696 27.2737 49.3821 34.2519 49.3821Z" fill="#5653E5"/>
<path d="M42.0251 39.9506C41.9317 39.6151 41.7632 39.3057 41.5326 39.0464C41.3021 38.7871 41.0156 38.5847 40.6952 38.455L39.7793 38.1042C39.4233 37.9595 39.0299 37.9376 38.6602 38.0417C38.2906 38.1458 37.9652 38.3701 37.7347 38.6799L36.9251 39.771C35.6535 39.808 34.1873 39.3295 32.8857 38.3459C31.664 37.4226 30.8212 36.2308 30.4571 35.0625C30.4549 35.0545 30.4552 35.046 30.458 35.0381C30.4608 35.0303 30.4659 35.0235 30.4726 35.0188C30.4794 35.014 30.4874 35.0114 30.4956 35.0114C30.5039 35.0115 30.5119 35.014 30.5186 35.0189L31.2484 34.0352C31.5117 33.6789 31.6509 33.2447 31.6443 32.8002C31.6376 32.3556 31.4856 31.9258 31.2118 31.5777L30.6084 30.8106C30.3916 30.535 30.1151 30.3134 29.8001 30.1627C29.4852 30.0121 29.1402 29.9365 28.7917 29.9417C28.4432 29.9468 28.1006 30.0327 27.7902 30.1927C27.4798 30.3526 27.2098 30.5824 27.0012 30.8643C26.7822 31.1609 26.6198 31.4962 26.5224 31.853C25.8575 34.2433 27.7592 37.8574 31.2783 40.5163C34.7974 43.1753 38.7587 44.0028 40.8465 42.6817C41.1591 42.4859 41.4331 42.2332 41.6544 41.9364C41.8635 41.6567 42.0058 41.3319 42.0701 40.9874C42.1344 40.6429 42.119 40.2881 42.0251 39.9506V39.9506Z" fill="#FCFCFC"/>
<defs>
<linearGradient id="paint0_linear_2_1026" x1="67.4265" y1="27.598" x2="69.1669" y2="27.598" gradientUnits="userSpaceOnUse">
<stop stop-color="#DAE3FE"/>
<stop offset="1" stop-color="#E9EFFD"/>
</linearGradient>
<linearGradient id="paint1_linear_2_1026" x1="1413.55" y1="517.248" x2="1481.41" y2="517.248" gradientUnits="userSpaceOnUse">
<stop stop-color="#DAE3FE"/>
<stop offset="1" stop-color="#E9EFFD"/>
</linearGradient>
<linearGradient id="paint2_linear_2_1026" x1="7280.91" y1="336.733" x2="8932.92" y2="336.733" gradientUnits="userSpaceOnUse">
<stop stop-color="#DAE3FE"/>
<stop offset="1" stop-color="#E9EFFD"/>
</linearGradient>
<linearGradient id="paint3_linear_2_1026" x1="4021.17" y1="323.821" x2="4514.46" y2="323.821" gradientUnits="userSpaceOnUse">
<stop stop-color="#DAE3FE"/>
<stop offset="1" stop-color="#E9EFFD"/>
</linearGradient>
<linearGradient id="paint4_linear_2_1026" x1="3438.31" y1="323.821" x2="3715.91" y2="323.821" gradientUnits="userSpaceOnUse">
<stop stop-color="#DAE3FE"/>
<stop offset="1" stop-color="#E9EFFD"/>
</linearGradient>
</defs>
</svg>
